<svg width="20" height="20" viewBox="0 0 20 20" fill="none" xmlns="http://www.w3.org/2000/svg">
<g clip-path="url(#clip0_4395_55454)">
<path fill-rule="evenodd" clip-rule="evenodd" d="M17.9167 9.99998C17.9167 14.3722 14.3723 17.9166 10 17.9166C5.62776 17.9166 2.08334 14.3722 2.08334 9.99998C2.08334 5.62773 5.62776 2.08331 10 2.08331C14.3723 2.08331 17.9167 5.62773 17.9167 9.99998ZM19.1667 9.99998C19.1667 15.0626 15.0626 19.1666 10 19.1666C4.9374 19.1666 0.833344 15.0626 0.833344 9.99998C0.833344 4.93737 4.9374 0.833313 10 0.833313C15.0626 0.833313 19.1667 4.93737 19.1667 9.99998ZM10.625 5.83333C10.625 5.48815 10.3452 5.20833 10 5.20833C9.65482 5.20833 9.375 5.48815 9.375 5.83333V11.4583H15C15.3452 11.4583 15.625 11.1785 15.625 10.8333C15.625 10.4882 15.3452 10.2083 15 10.2083H10.625V5.83333Z" fill="#0052FF"/>
</g>
<defs>
<clipPath id="clip0_4395_55454">
<rect width="20" height="20" fill="white"/>
</clipPath>
</defs>
</svg>
