<svg width="24" height="24" viewBox="0 0 24 24" fill="none" xmlns="http://www.w3.org/2000/svg">
<g id="Icon/Close">
<path id="Union" fill-rule="evenodd" clip-rule="evenodd" d="M4.27349 18.3637C3.92202 18.7152 3.92202 19.285 4.27349 19.6365C4.62496 19.988 5.19481 19.988 5.54628 19.6365L11.9549 13.2278L18.3636 19.6365C18.7151 19.988 19.2849 19.988 19.6364 19.6365C19.9879 19.285 19.9879 18.7152 19.6364 18.3637L13.2277 11.9551L19.6364 5.54641C19.9879 5.19493 19.9879 4.62509 19.6364 4.27361C19.2849 3.92214 18.7151 3.92214 18.3636 4.27361L11.9549 10.6823L5.54628 4.27361C5.19481 3.92214 4.62496 3.92214 4.27349 4.27361C3.92202 4.62509 3.92202 5.19493 4.27349 5.54641L10.6821 11.9551L4.27349 18.3637Z" fill="#454A52"/>
</g>
</svg>
