<svg width="20" height="20" viewBox="0 0 20 20" fill="none" xmlns="http://www.w3.org/2000/svg">
<g id="icon/filter_gray700_24">
<path id="Union" fill-rule="evenodd" clip-rule="evenodd" d="M5.41663 4.16675C5.41663 4.8571 4.85698 5.41675 4.16663 5.41675C3.47627 5.41675 2.91663 4.8571 2.91663 4.16675C2.91663 3.47639 3.47627 2.91675 4.16663 2.91675C4.85698 2.91675 5.41663 3.47639 5.41663 4.16675ZM6.63207 4.58333C6.43374 5.76575 5.4054 6.66675 4.16663 6.66675C2.78591 6.66675 1.66663 5.54746 1.66663 4.16675C1.66663 2.78604 2.78591 1.66675 4.16663 1.66675C5.25511 1.66675 6.18112 2.36238 6.52434 3.33333H17.7083C18.0535 3.33333 18.3333 3.61316 18.3333 3.95833C18.3333 4.30351 18.0535 4.58333 17.7083 4.58333H6.63207ZM14.1666 7.5C15.2552 7.5 16.1812 8.19567 16.5244 9.16667H17.7083C18.0535 9.16667 18.3333 9.44649 18.3333 9.79167C18.3333 10.1368 18.0535 10.4167 17.7083 10.4167H16.6321C16.4337 11.599 15.4054 12.5 14.1666 12.5C12.9279 12.5 11.8996 11.599 11.7012 10.4167H2.29164C1.94646 10.4167 1.66664 10.1368 1.66664 9.79167C1.66664 9.44649 1.94646 9.16667 2.29164 9.16667H11.8089C12.1521 8.19567 13.0781 7.5 14.1666 7.5ZM9.9654 16.25C9.76704 17.4324 8.73872 18.3333 7.49997 18.3333C6.26122 18.3333 5.2329 17.4324 5.03454 16.25H2.29164C1.94646 16.25 1.66664 15.9702 1.66664 15.625C1.66664 15.2798 1.94646 15 2.29164 15H5.14222C5.48542 14.029 6.41145 13.3333 7.49997 13.3333C8.58848 13.3333 9.51452 14.029 9.85771 15H17.7083C18.0535 15 18.3333 15.2798 18.3333 15.625C18.3333 15.9702 18.0535 16.25 17.7083 16.25H9.9654ZM14.1666 11.25C14.857 11.25 15.4166 10.6904 15.4166 10C15.4166 9.30964 14.857 8.75 14.1666 8.75C13.4763 8.75 12.9166 9.30964 12.9166 10C12.9166 10.6904 13.4763 11.25 14.1666 11.25ZM8.74997 15.8333C8.74997 16.5237 8.19033 17.0833 7.49997 17.0833C6.80961 17.0833 6.24997 16.5237 6.24997 15.8333C6.24997 15.143 6.80961 14.5833 7.49997 14.5833C8.19033 14.5833 8.74997 15.143 8.74997 15.8333Z" fill="#454A52"/>
</g>
</svg>
