<svg width="24" height="24" viewBox="0 0 24 24" fill="none" xmlns="http://www.w3.org/2000/svg">
<path fill-rule="evenodd" clip-rule="evenodd" d="M18.9764 6.89286H4.5715C4.53648 6.89286 4.50237 6.89673 4.46956 6.90408L11.7144 11.6333L18.9764 6.89286ZM2.71437 7.35036C2.71436 7.35262 2.71436 7.35488 2.71436 7.35714V16.6429C2.71436 17.6685 3.54583 18.5 4.5715 18.5H19.4286C20.4543 18.5 21.2858 17.6685 21.2858 16.6429V7.35714C21.2858 6.33147 20.4543 5.5 19.4286 5.5H4.5715C3.55664 5.5 2.73192 6.31403 2.71463 7.32476C2.71441 7.33329 2.71432 7.34183 2.71437 7.35036ZM4.10721 8.7074L11.2289 13.3562C11.5225 13.5479 11.9062 13.5479 12.1999 13.3562L19.8929 8.33439V16.6429C19.8929 16.8993 19.6851 17.1071 19.4286 17.1071H4.5715C4.31508 17.1071 4.10721 16.8993 4.10721 16.6429V8.7074Z" fill="#2E3137"/>
</svg>
