<svg width="24" height="24" viewBox="0 0 24 24" fill="none" xmlns="http://www.w3.org/2000/svg">
<path fill-rule="evenodd" clip-rule="evenodd" d="M10.9445 1.05524C10.6516 0.762348 10.1767 0.762348 9.88379 1.05524C9.5909 1.34813 9.5909 1.82301 9.88379 2.1159L11.0646 3.29672C6.39527 3.76562 2.75 7.70712 2.75 12.5C2.75 17.6086 6.89137 21.75 12 21.75C17.1086 21.75 21.25 17.6086 21.25 12.5C21.25 9.07526 19.3884 6.08619 16.6255 4.48795C16.267 4.28055 15.8082 4.40307 15.6008 4.76161C15.3934 5.12016 15.5159 5.57895 15.8745 5.78636C18.1929 7.12751 19.75 9.63236 19.75 12.5C19.75 16.7802 16.2802 20.25 12 20.25C7.71979 20.25 4.25 16.7802 4.25 12.5C4.25 8.57708 7.16471 5.33491 10.9467 4.82099L9.88379 5.88385C9.5909 6.17675 9.5909 6.65162 9.88379 6.94451C10.1767 7.23741 10.6516 7.23741 10.9445 6.94451L13.3588 4.53021C13.6517 4.23731 13.6517 3.76244 13.3588 3.46955L10.9445 1.05524Z" fill="#0052FF"/>
</svg>
