<svg width="24" height="24" viewBox="0 0 24 24" fill="none" xmlns="http://www.w3.org/2000/svg">
<g id="Icon/Normal/Close">
<path id="Union" fill-rule="evenodd" clip-rule="evenodd" d="M5.71085 16.5923C5.24222 17.061 5.24222 17.8208 5.71085 18.2894C6.17948 18.758 6.93927 18.758 7.4079 18.2894L12.0002 13.6971L16.5925 18.2894C17.0612 18.758 17.821 18.758 18.2896 18.2894C18.7582 17.8207 18.7582 17.0609 18.2896 16.5923L13.6973 12L18.2896 7.4077C18.7582 6.93907 18.7582 6.17928 18.2896 5.71065C17.821 5.24202 17.0612 5.24202 16.5925 5.71065L12.0002 10.3029L7.4079 5.71061C6.93927 5.24198 6.17948 5.24198 5.71085 5.71061C5.24222 6.17924 5.24222 6.93904 5.71085 7.40767L10.3032 12L5.71085 16.5923Z" fill="white"/>
</g>
</svg>
