<svg width="24" height="24" viewBox="0 0 24 24" fill="none" xmlns="http://www.w3.org/2000/svg">
<path d="M12.3843 11.9746C12.0753 11.9746 11.8248 12.225 11.8248 12.5341V13.4664H10.8925C10.5835 13.4664 10.333 13.7169 10.333 14.0259C10.333 14.335 10.5835 14.5853 10.8925 14.5853H11.8248V15.5178C11.8248 15.8268 12.0753 16.0771 12.3843 16.0771C12.6932 16.0771 12.9437 15.8268 12.9437 15.5178V14.5853H13.8761C14.1851 14.5853 14.4356 14.335 14.4356 14.0259C14.4356 13.7169 14.1851 13.4664 13.8761 13.4664H12.9437V12.5341C12.9437 12.225 12.6932 11.9746 12.3843 11.9746Z" fill="white"/>
<path fill-rule="evenodd" clip-rule="evenodd" d="M8 4.39999C8 4.17908 8.17909 4 8.39999 4H9.60001C9.82091 4 10 4.17908 10 4.39999V5H15V4.39999C15 4.17908 15.1791 4 15.4 4H16.6C16.8209 4 17 4.17908 17 4.39999V5H17.3077C18.6672 5 19.7692 6.10217 19.7692 7.46155V17.3077C19.7692 18.6671 18.6672 19.7692 17.3077 19.7692H7.46153C6.10207 19.7692 5 18.6671 5 17.3077V7.46155C5 6.10217 6.10207 5 7.46153 5H8V4.39999ZM6.23077 9.9231V17.3077C6.23077 17.9874 6.78185 18.5385 7.46153 18.5385H17.3077C17.9874 18.5385 18.5385 17.9874 18.5385 17.3077V9.9231H6.23077Z" fill="white"/>
</svg>
