<svg width="60" height="60" viewBox="0 0 60 60" fill="none" xmlns="http://www.w3.org/2000/svg">
<path fill-rule="evenodd" clip-rule="evenodd" d="M14.5315 11.7506L36.0438 15.4084L26.4963 24.956L9.60346 16.0872C8.9619 15.7504 8.83075 14.8877 9.34375 14.376L10.7734 12.9476C11.7583 11.9627 13.1584 11.5166 14.5315 11.7506Z" fill="#93C9FF"/>
<path fill-rule="evenodd" clip-rule="evenodd" d="M44.587 23.9554L48.2474 45.4677C48.4814 46.8421 48.034 48.2435 47.0491 49.2284L45.6207 50.6555C45.1077 51.1672 44.2463 51.0361 43.9095 50.3945L35.042 33.5017L44.587 23.9554Z" fill="#93C9FF"/>
<path fill-rule="evenodd" clip-rule="evenodd" d="M50.8765 17.6682L28.4655 40.0792V45.8764C28.4655 47.0169 28.0129 48.1097 27.2068 48.9158L23.9386 52.1841C23.3124 52.8102 22.2402 52.4528 22.1155 51.576L20.5173 40.3942C20.4492 39.9211 20.0789 39.5495 19.6058 39.4827L8.42405 37.8845C7.5472 37.7598 7.18978 36.6876 7.81591 36.0614L11.0842 32.7945C11.8903 31.9883 12.9831 31.5358 14.1223 31.5358H19.9195L42.3305 9.12476C44.7116 6.90307 48.4247 6.96736 50.7274 9.27133C53.0314 11.5727 53.0969 15.2858 50.8765 17.6682Z" fill="#C8E1FF"/>
</svg>
