<svg width="16" height="20" viewBox="0 0 16 20" fill="none" xmlns="http://www.w3.org/2000/svg">
<g clip-path="url(#clip0_4875_4657)">
<path fill-rule="evenodd" clip-rule="evenodd" d="M11.9105 0C12.0376 1.15001 11.5751 2.3059 10.8876 3.13574C10.2038 3.96793 9.07494 4.61297 7.97437 4.5294C7.82253 3.40411 8.38164 2.22468 9.01844 1.48665C9.72586 0.660341 10.923 0.0376665 11.9105 0ZM15.4782 6.70628C15.3252 6.79844 13.3414 7.99329 13.3634 10.4374H13.3622C13.3881 13.413 15.9694 14.4041 15.9989 14.4147C15.9981 14.4172 15.9969 14.4212 15.9952 14.4266C15.9486 14.5783 15.5506 15.874 14.637 17.2115C13.8201 18.405 12.9714 19.5986 11.6331 19.6268C10.9907 19.6366 10.5611 19.4504 10.115 19.257C9.64646 19.0539 9.15971 18.8429 8.38906 18.8429C7.5837 18.8429 7.07456 19.0595 6.58403 19.2682C6.1583 19.4493 5.74658 19.6244 5.1674 19.6468C3.87615 19.6951 2.89329 18.3544 2.06933 17.1609C0.377875 14.7231 -0.909846 10.2667 0.82281 7.26045C1.68325 5.77145 3.21816 4.82272 4.88961 4.80036C5.60784 4.78634 6.30487 5.06228 6.91502 5.30382C7.38082 5.48821 7.79598 5.65256 8.13128 5.65256C8.43203 5.65256 8.83572 5.49318 9.30672 5.30723C10.0487 5.0143 10.9577 4.65542 11.8944 4.74974C12.5324 4.77799 14.3309 5.01341 15.4845 6.70252C15.4829 6.70345 15.4809 6.7047 15.4782 6.70628Z" fill="white"/>
</g>
<defs>
<clipPath id="clip0_4875_4657">
<rect width="16" height="20" fill="white"/>
</clipPath>
</defs>
</svg>
