<svg width="48" height="48" viewBox="0 0 48 48" fill="none" xmlns="http://www.w3.org/2000/svg">
<path fill-rule="evenodd" clip-rule="evenodd" d="M33.918 23.7891L34.1416 23.9893L33.9424 24.2129L33.2764 24.959L33.0771 25.1826L32.8525 24.9834L32.165 24.3691V31.2021L32.1553 31.4014C32.0554 32.3847 31.2245 33.1523 30.2148 33.1523H18.1777C17.1681 33.1523 16.3372 32.3847 16.2373 31.4014L16.2275 31.2021V24.1445L15.0664 25.1826L14.8662 24.959L14.2012 24.2129L14 23.9893L23.8721 15.1787L24.0713 15L33.918 23.7891ZM17.7275 22.8057V31.2021L17.7363 31.293C17.7784 31.4979 17.9604 31.6523 18.1777 31.6523H23.3896V27.6523H24.8896V31.6523H30.2148C30.4322 31.6523 30.6142 31.4979 30.6562 31.293L30.665 31.2021V23.0303L24.0693 17.1445L17.7275 22.8057Z" fill="#2E3137"/>
</svg>
