<svg width="48" height="48" viewBox="0 0 48 48" fill="none" xmlns="http://www.w3.org/2000/svg">
<path fill-rule="evenodd" clip-rule="evenodd" d="M27.2118 24C27.2118 25.7752 25.7727 27.2143 23.9975 27.2143C22.2223 27.2143 20.7832 25.7752 20.7832 24C20.7832 22.2248 22.2223 20.7857 23.9975 20.7857C25.7727 20.7857 27.2118 22.2248 27.2118 24ZM25.9261 24C25.9261 25.0651 25.0626 25.9286 23.9975 25.9286C22.9324 25.9286 22.069 25.0651 22.069 24C22.069 22.9349 22.9324 22.0714 23.9975 22.0714C25.0626 22.0714 25.9261 22.9349 25.9261 24Z" fill="#2E3137"/>
<path fill-rule="evenodd" clip-rule="evenodd" d="M21.1073 32.5258C21.2178 31.6461 20.9415 30.8821 20.2528 30.4845C19.5678 30.089 18.7249 30.196 17.9979 30.7084C16.585 29.4437 15.5739 27.7393 15.18 25.8102C15.989 25.4548 16.5099 24.7645 16.5099 23.9986C16.5099 23.246 15.943 22.5252 15.185 22.1656C15.5842 20.2377 16.6001 18.5355 18.0172 17.2744C18.716 17.7663 19.5904 17.8988 20.2547 17.5152C20.9205 17.1308 21.239 16.305 21.1348 15.465C22.0342 15.1634 22.997 15 23.9979 15C25.0003 15 25.9644 15.1639 26.8649 15.4663C26.7891 16.3032 27.0797 17.1329 27.7417 17.5151C28.422 17.9079 29.2247 17.771 29.9318 17.2331C31.3465 18.4747 32.3686 20.1528 32.7876 22.057C31.9526 22.3962 31.4851 23.1727 31.4851 23.9998C31.4851 24.8229 31.9734 25.5069 32.8111 25.8328C32.4175 27.7356 31.4231 29.4187 30.0351 30.6749C29.3205 30.1958 28.426 30.0873 27.7398 30.4834C27.0426 30.886 26.7466 31.64 26.8395 32.5422C25.9463 32.8392 24.9909 33 23.9979 33C22.9868 33 22.0146 32.8333 21.1073 32.5258ZM20.8956 29.371C20.0355 28.8744 19.0934 28.8592 18.2517 29.1471C17.5416 28.3551 16.9937 27.4164 16.6584 26.3831C17.3346 25.8004 17.7957 24.9739 17.7957 23.9986C17.7957 23.0297 17.3117 22.2016 16.6581 21.6178C16.9963 20.575 17.5512 19.6285 18.2707 18.8318C19.0981 19.1136 20.0464 19.1201 20.8975 18.6287C21.7453 18.1392 22.2157 17.3168 22.3759 16.4563C22.8981 16.3446 23.4405 16.2857 23.9979 16.2857C24.5614 16.2857 25.1098 16.3459 25.6373 16.46C25.7955 17.3001 26.2382 18.1317 27.0988 18.6286C27.9701 19.1316 28.8945 19.1195 29.7091 18.8141C30.4081 19.5834 30.9532 20.4935 31.297 21.4958C30.5849 22.1421 30.1994 23.0582 30.1994 23.9998C30.1994 24.9857 30.6249 25.8358 31.3228 26.4275C30.989 27.4354 30.4524 28.352 29.7604 29.1289C28.9117 28.8584 27.9506 28.8771 27.097 29.37C26.2177 29.8776 25.7523 30.6807 25.5975 31.5485C25.0822 31.6571 24.5473 31.7143 23.9979 31.7143C23.4366 31.7143 22.8903 31.6545 22.3647 31.5413C22.2227 30.6857 21.7736 29.8779 20.8956 29.371Z" fill="#2E3137"/>
</svg>
