<svg width="22" height="22" viewBox="0 0 22 22" fill="none" xmlns="http://www.w3.org/2000/svg">
<path fill-rule="evenodd" clip-rule="evenodd" d="M1.92499 10.9998C1.92499 5.98782 5.98799 1.9248 11 1.9248C16.0119 1.9248 20.0749 5.98782 20.0749 10.9998C20.0749 16.0118 16.0119 20.0748 11 20.0748C5.98799 20.0748 1.92499 16.0118 1.92499 10.9998ZM8.37499 7.20813C8.05281 6.88595 7.53045 6.88595 7.20827 7.20813C6.88609 7.53031 6.88609 8.05267 7.20827 8.37486L9.83323 10.9998L7.20827 13.6248C6.88609 13.947 6.88609 14.4693 7.20827 14.7915C7.53045 15.1137 8.05281 15.1137 8.37499 14.7915L11 12.1666L13.6249 14.7915C13.9471 15.1137 14.4695 15.1137 14.7916 14.7915C15.1138 14.4693 15.1138 13.947 14.7916 13.6248L12.1667 10.9998L14.7916 8.37486C15.1138 8.05267 15.1138 7.53031 14.7916 7.20813C14.4695 6.88595 13.9471 6.88595 13.6249 7.20813L11 9.8331L8.37499 7.20813Z" fill="white"/>
</svg>
