<svg width="26" height="26" viewBox="0 0 26 26" fill="none" xmlns="http://www.w3.org/2000/svg">
<g clip-path="url(#clip0_112_4937)">
<path d="M21.5092 3.11914H4.49095C3.4464 3.11914 2.6001 3.96544 2.6001 5.00999V21.3978C2.6001 22.4423 3.4464 23.2886 4.49095 23.2886H18.3574L23.4001 18.2459V5.00999C23.4001 3.96544 22.5538 3.11914 21.5092 3.11914Z" fill="#E5E9EE"/>
<path d="M7.15015 12.644C7.15015 12.3496 7.3016 12.0753 7.55185 11.9193L9.5077 10.696C9.70725 10.5712 9.938 10.5049 10.1733 10.5049C10.8662 10.5049 11.4284 11.0665 11.4284 11.76V19.0101C11.4284 19.5815 10.965 20.0449 10.3936 20.0449C9.8223 20.0449 9.35885 19.5815 9.35885 19.0101V12.8143L8.45535 13.372C7.88595 13.7237 7.15145 13.3142 7.15145 12.6447L7.15015 12.644Z" fill="#8E4EC6"/>
<path d="M12.5029 11.47C12.5029 11.0066 12.8786 10.6309 13.3421 10.6309H18.0955C18.5122 10.6309 18.8502 10.9689 18.8502 11.3855C18.8502 11.8704 18.7507 12.3495 18.557 12.7941L15.6814 19.4098C15.5137 19.7952 15.1335 20.0448 14.7129 20.0448C13.9472 20.0448 13.4363 19.2564 13.7483 18.5576L16.5414 12.3098H13.3427C12.8793 12.3098 12.5036 11.9341 12.5036 11.4707L12.5029 11.47Z" fill="#8E4EC6"/>
<path d="M4.49095 3.11914H21.5092C22.5531 3.11914 23.4001 3.96674 23.4001 5.00999V8.05589H2.6001V5.00999C2.6001 3.96609 3.4477 3.11914 4.49095 3.11914Z" fill="#D3B4ED"/>
<path d="M6.69698 4.69515C6.26213 4.69515 5.90918 4.34285 5.90918 3.90735V2.33175C5.90918 1.89625 6.26148 1.54395 6.69698 1.54395C7.13248 1.54395 7.48478 1.89625 7.48478 2.33175V3.90735C7.48478 4.34285 7.13248 4.69515 6.69698 4.69515Z" fill="#4B596A"/>
<path d="M19.3032 4.69515C18.8683 4.69515 18.5154 4.34285 18.5154 3.90735V2.33175C18.5154 1.89625 18.8677 1.54395 19.3032 1.54395C19.7387 1.54395 20.091 1.89625 20.091 2.33175V3.90735C20.091 4.34285 19.7387 4.69515 19.3032 4.69515Z" fill="#4B596A"/>
<path fill-rule="evenodd" clip-rule="evenodd" d="M19.6184 18.2471H23.4001L18.3574 23.2898V19.5081C18.3574 18.8119 18.9216 18.2477 19.6178 18.2477L19.6184 18.2471Z" fill="#C0C7D1"/>
</g>
<defs>
<clipPath id="clip0_112_4937">
<rect width="26" height="26" fill="white"/>
</clipPath>
</defs>
</svg>
