<svg width="48" height="48" viewBox="0 0 48 48" fill="none" xmlns="http://www.w3.org/2000/svg">
<circle cx="24" cy="24" r="11.5" fill="#E5E8EC" stroke="#DEE1E5"/>
<path d="M21.0124 20.6908C21.0124 19.0408 22.35 17.7031 24.0001 17.7031C25.6501 17.7031 26.9877 19.0408 26.9877 20.6908C26.9877 22.3409 25.6501 23.6785 24.0001 23.6785C22.35 23.6785 21.0124 22.3409 21.0124 20.6908Z" fill="white"/>
<path d="M24 24.9999C22.4302 24.9999 20.9652 25.3072 19.8691 25.8976C18.7738 26.4877 17.9568 27.4214 17.9568 28.6666L17.9568 28.8891C17.9567 29.0159 17.9567 29.1449 17.9657 29.2552C17.9758 29.3779 17.9999 29.5302 18.0789 29.6852C18.1863 29.896 18.3577 30.0674 18.5685 30.1748C18.7235 30.2538 18.8758 30.2779 18.9985 30.2879C19.1088 30.2969 19.2378 30.2969 19.3646 30.2969L28.6356 30.2963C28.7623 30.2963 28.8913 30.2964 29.0016 30.2873C29.1243 30.2773 29.2766 30.2531 29.4315 30.1742C29.6423 30.0668 29.8137 29.8954 29.9211 29.6846C30.0001 29.5296 30.0242 29.3773 30.0343 29.2546C30.0433 29.1443 30.0433 29.0153 30.0432 28.8886L30.0432 28.6666C30.0432 27.4214 29.2262 26.4877 28.1309 25.8976C27.0348 25.3072 25.5698 24.9999 24 24.9999Z" fill="white"/>
</svg>
