<svg width="272" height="440" viewBox="0 0 272 440" fill="none" xmlns="http://www.w3.org/2000/svg">
<path fill-rule="evenodd" clip-rule="evenodd" d="M3 439.23C1.34314 439.23 0 437.887 0 436.23V420.162C0 418.346 1.60046 416.955 3.40759 417.137C10.6669 417.869 15.5225 417.327 22.7327 414.563C23.2903 414.349 23.7721 413.959 24.1088 413.466C90.4738 316.231 111.653 238.243 120.931 58.9883C120.94 58.8193 120.935 58.644 120.914 58.476C120.448 54.7772 119.514 52.6773 116.213 50.1567C115.424 49.5541 114.922 48.6355 114.922 47.6425V42.583C114.922 40.9846 116.19 39.7252 117.756 39.4022C121.822 38.5632 123.06 36.114 122.749 30.1432C122.718 29.5495 122.86 28.959 123.109 28.4191C123.49 27.593 123.691 26.868 123.883 26.1772V26.177C124.436 24.1907 124.91 22.4861 129.338 19.4684C130.043 18.988 130.54 18.2461 130.68 17.4047C132.174 8.43113 133.221 3.36478 134.654 0.824387C135.274 -0.2761 136.725 -0.274448 137.343 0.827267C138.769 3.36878 139.813 8.43521 141.301 17.4065C141.44 18.2469 141.936 18.9883 142.639 19.4692C147.05 22.4864 147.522 24.1908 148.072 26.177L148.072 26.1778C148.264 26.8691 148.465 27.5944 148.845 28.4212C149.092 28.9597 149.233 29.5483 149.203 30.1402C148.892 36.1084 150.123 38.5592 154.167 39.4002C155.732 39.7255 157 40.9843 157 42.5824V47.6458C157 48.637 156.5 49.5541 155.714 50.1571C152.425 52.6777 151.495 54.7777 151.031 58.4769C151.01 58.6443 151.005 58.8189 151.013 58.9873C160.257 238.241 181.359 316.23 247.479 413.464C247.815 413.959 248.297 414.35 248.854 414.564C256.031 417.325 260.867 417.869 268.091 417.139C269.898 416.956 271.5 418.347 271.5 420.164V436.23C271.5 437.887 270.157 439.23 268.5 439.23H165.706L159.349 432.873L157.925 431.777C157.142 431.174 155.82 430.122 154.987 429.438C154.154 428.754 152.792 427.659 151.959 427.003C151.126 426.348 149.536 425.081 148.425 424.188L146.406 422.564L146.54 421.073C147.167 414.084 147.986 402.807 148.282 397.08C148.356 395.644 148.454 393.91 148.498 393.226C148.543 392.543 148.643 390.473 148.721 388.627C148.798 386.781 148.893 384.935 148.931 384.524C148.969 384.114 149.123 380.226 149.272 375.885C149.422 371.543 149.608 367.991 149.685 367.991C149.762 367.991 150.305 368.153 150.892 368.352C151.479 368.55 152.883 368.99 154.014 369.33C155.144 369.67 157.918 370.526 160.178 371.233C162.439 371.939 165.894 373.016 167.857 373.627C169.82 374.237 171.961 374.905 172.616 375.111C173.27 375.317 177.601 376.66 182.241 378.095C186.881 379.53 192.478 381.265 194.678 381.949C196.879 382.634 199.41 383.418 200.302 383.692C201.195 383.965 202.978 384.518 204.265 384.92C205.553 385.322 206.696 385.587 206.807 385.508C206.92 385.427 207.004 383.129 207 380.221L206.992 375.077L204.818 373.336C203.621 372.379 202.238 371.259 201.743 370.847C201.248 370.435 200.016 369.42 199.004 368.591C197.993 367.762 195.365 365.588 193.164 363.76C190.963 361.932 188.092 359.565 186.783 358.501C185.475 357.437 182.944 355.358 181.16 353.882C179.375 352.406 176.309 349.869 174.346 348.245C172.383 346.62 170.29 344.895 169.696 344.411C169.101 343.926 168.065 343.076 167.393 342.521C162.356 338.359 160.348 336.702 159.667 336.145C159.234 335.792 158.053 334.811 157.042 333.966C156.031 333.122 154.108 331.535 152.77 330.44L150.337 328.449L150.31 321.617C150.295 317.859 150.265 314.7 150.244 314.598C150.223 314.496 150.129 313.796 150.034 313.044L150.034 313.042C149.925 312.179 149.866 311.71 149.784 311.245C149.687 310.691 149.557 310.142 149.273 308.941L149.272 308.939L149.271 308.934C148.268 304.692 146.606 300.294 144.765 297.008C143.476 294.707 140.583 291.421 139.197 290.682C137.792 289.934 135.838 289.782 134.548 290.321C130.055 292.198 125.645 300.136 123.468 310.264C122.805 313.35 122.788 313.577 122.666 320.99L122.542 328.563L120.054 330.629C118.686 331.765 117.08 333.086 116.485 333.565C115.89 334.044 114.221 335.413 112.776 336.607C111.33 337.8 108.653 340.007 106.827 341.511C105.001 343.014 103.239 344.469 102.911 344.743C102.583 345.017 101.091 346.248 99.596 347.479C95.2129 351.087 95.0528 351.219 91.8557 353.866C90.1743 355.259 87.6973 357.3 86.3508 358.403C85.0045 359.505 83.4958 360.746 82.9981 361.16C82.5006 361.574 81.3146 362.551 80.3629 363.33C77.7856 365.44 71.9232 370.274 70.1967 371.712C69.364 372.406 68.0789 373.472 67.3413 374.081L66 375.189L66.0435 380.354L66.087 385.519L66.6277 385.484C67.1494 385.45 70.3025 384.513 75.2039 382.935C77.1229 382.317 87.3386 379.138 92.3676 377.594C93.6711 377.194 99.2596 375.458 105.67 373.461C110.337 372.007 110.646 371.912 116.269 370.191C118.529 369.499 120.997 368.721 121.753 368.462C122.51 368.203 123.203 367.991 123.294 367.991C123.385 367.991 123.526 370.256 123.607 373.025C123.688 375.794 123.791 378.452 123.837 378.93C123.883 379.409 123.978 381.535 124.047 383.654C124.117 385.774 124.217 388.011 124.27 388.627C124.323 389.242 124.422 391.2 124.489 392.978C124.557 394.755 124.655 396.657 124.707 397.204C124.759 397.751 124.858 399.262 124.927 400.561C125.194 405.605 125.917 415.321 126.452 421.073L126.59 422.564L125.215 423.665C124.458 424.27 122.769 425.619 121.46 426.661C120.152 427.704 118.497 429.035 117.783 429.619C117.069 430.202 115.845 431.173 115.063 431.775L113.64 432.871L107.281 439.23H3ZM135.854 165H134.633C133.619 165 132.765 165.759 132.647 166.766L132.466 168.306L132.466 168.307C129.219 195.969 127.282 212.462 120.354 242C119.618 244.604 119.275 246.554 119.007 249.872C118.913 251.023 119.832 252 120.987 252H135.854H150.722C151.877 252 152.796 251.023 152.703 249.872C152.434 246.554 152.091 244.604 151.354 242C144.427 212.462 142.49 195.968 139.243 168.306L139.062 166.766C138.944 165.759 138.09 165 137.076 165H135.854Z" fill="white"/>
</svg>
