<svg width="25" height="24" viewBox="0 0 25 24" fill="none" xmlns="http://www.w3.org/2000/svg">
<path d="M11.1667 16.3333H9.83333V9.66667H11.1667V16.3333Z" fill="#2E3137"/>
<path d="M15.1667 16.3333H13.8333V9.66667H15.1667V16.3333Z" fill="#2E3137"/>
<path fill-rule="evenodd" clip-rule="evenodd" d="M20.5 7H19.1667V18.3333C19.1667 19.8061 17.9728 21 16.5 21H8.5C7.02724 21 5.83333 19.8061 5.83333 18.3333V7H4.5V5.66667H20.5V7ZM7.16667 18.3333C7.16667 19.0697 7.76362 19.6667 8.5 19.6667H16.5C17.2364 19.6667 17.8333 19.0697 17.8333 18.3333V7H7.16667V18.3333Z" fill="#2E3137"/>
<path d="M15.1667 4.33333H9.83333V3H15.1667V4.33333Z" fill="#2E3137"/>
</svg>
