<svg width="281" height="73" viewBox="0 0 281 73" fill="none" xmlns="http://www.w3.org/2000/svg">
<g clip-path="url(#clip0_7_79)">
<path d="M24.3238 24.64C19.3638 24.64 14.1638 23.04 8.72385 19.84C3.20385 16.56 0.443848 13.2 0.443848 9.76003C0.443848 5.12003 2.76385 2.80003 7.40385 2.80003C7.88385 2.80003 8.48385 2.84003 9.20385 2.92002C9.92385 2.92002 10.5238 3.00003 11.0038 3.16003C24.2838 6.52003 35.7639 9.12003 45.4439 10.96C55.2038 12.72 63.1238 13.6 69.2038 13.6C76.3239 13.6 79.8839 12.04 79.8839 8.92003C79.8839 7.80003 79.2839 6.84003 78.0839 6.04003C76.9639 5.16002 75.3239 4.32002 73.1638 3.52002L66.6838 1.00003C66.6838 0.600024 67.2038 0.400024 68.2439 0.400024C71.3639 0.400024 74.6839 1.80003 78.2038 4.60002C81.7239 7.40003 83.4839 10.12 83.4839 12.76C83.4839 15.88 80.4439 17.44 74.3639 17.44H73.8839C69.8038 17.44 66.0439 17.24 62.6039 16.84C59.2439 16.36 56.1639 15.84 53.3638 15.28L27.2038 9.99999C25.1238 9.60003 23.4438 9.28003 22.1638 9.04003C20.9638 8.72003 19.3638 8.40003 17.3638 8.08003C15.6038 7.76003 13.8838 7.56003 12.2038 7.48003C10.6038 7.32003 9.00385 7.24003 7.40385 7.24003C4.28385 7.24003 2.72385 8.08003 2.72385 9.76003C2.72385 12.72 5.40385 15.68 10.7638 18.64C14.1238 20.48 16.8438 21.72 18.9238 22.36C21.0038 22.92 22.7238 23.16 24.0838 23.08L26.3638 22.96C26.9238 22.96 27.2038 23.12 27.2038 23.44C27.2038 24.24 26.2438 24.64 24.3238 24.64ZM33.4438 72.88C28.8838 72.88 26.6038 69.84 26.6038 63.76C26.6038 60.64 28.2038 55.28 31.4038 47.68C33.0038 43.84 34.8039 40.16 36.8039 36.64C38.8839 33.04 41.0838 29.64 43.4038 26.44C48.2038 19.96 52.2839 16.72 55.6439 16.72C57.4839 16.72 58.4039 17.32 58.4039 18.52C58.4039 18.6 58.2038 19.12 57.8038 20.08L50.2439 27.64C36.5639 42.84 29.7238 56.36 29.7238 68.2C29.7238 70.44 30.8838 71.56 33.2038 71.56C35.0438 71.56 36.9639 71 38.9638 69.88L41.9638 68.2C42.2838 68.2 42.4439 68.28 42.4439 68.44C42.4439 69.4 41.1638 70.36 38.6038 71.32C36.2038 72.36 34.4838 72.88 33.4438 72.88Z" fill="white"/>
<path d="M64.7695 67.24C64.0495 67.24 63.2495 67.04 62.3695 66.64C61.4895 66.24 61.0495 65.76 61.0495 65.2C61.0495 63.84 62.3695 59.04 65.0095 50.8C67.6495 42.48 68.9695 36.24 68.9695 32.08C68.9695 30.8 68.4095 30.08 67.2895 29.92C66.1695 29.76 65.6095 29.52 65.6095 29.2C65.6095 28.48 66.2095 28.12 67.4095 28.12C72.7695 28.12 75.4495 30.32 75.4495 34.72C75.4495 36 74.1295 40.72 71.4895 48.88C75.8095 41.84 80.6095 37 85.8895 34.36C87.2495 31.48 89.1295 30.04 91.5295 30.04C93.8495 30.04 95.1295 30.24 95.3695 30.64C95.2895 30.56 95.1295 30.68 94.8895 31C94.6495 31.32 94.3695 31.68 94.0495 32.08C92.7695 33.92 91.6495 35.72 90.6895 37.48C89.7295 39.16 89.2095 40.48 89.1295 41.44C89.1295 43.6 89.8895 44.92 91.4095 45.4C91.5695 45.48 91.7295 45.52 91.8895 45.52C92.1295 45.52 92.2495 45.6 92.2495 45.76C92.2495 46.4 91.4495 46.72 89.8495 46.72C88.3295 46.72 87.0095 46.12 85.8895 44.92C85.2495 44.2 84.8095 43.44 84.5695 42.64C84.3295 41.76 84.2095 40.92 84.2095 40.12C84.2095 38.84 84.4095 37.68 84.8095 36.64C82.8095 38.16 81.0095 39.76 79.4095 41.44C77.8095 43.04 76.3295 44.64 74.9695 46.24C72.4095 49.52 70.6095 52.44 69.5695 55C68.6095 57.48 67.9295 59.6 67.5295 61.36C67.0495 63.28 66.6495 64.76 66.3295 65.8C66.0095 66.76 65.4895 67.24 64.7695 67.24Z" fill="white"/>
<path d="M95.0292 67.96C93.4292 67.96 91.9492 67.24 90.5892 65.8C89.3092 64.28 88.6692 62.36 88.6692 60.04C88.6692 57.72 90.0692 54.12 92.8692 49.24C95.6692 44.44 99.1092 40.12 103.189 36.28C107.189 32.52 110.629 30.64 113.509 30.64H114.709C117.669 30.64 120.189 31.24 122.269 32.44C124.349 33.56 125.389 35.08 125.389 37C125.389 37.88 125.029 38.32 124.309 38.32C124.069 38.32 123.949 38.2 123.949 37.96C122.669 35 120.709 33.52 118.069 33.52C113.509 33.52 108.309 37.28 102.469 44.8C96.6292 52.16 93.7092 57.84 93.7092 61.84C93.7092 63.36 94.1092 64.12 94.9092 64.12C98.5092 64.12 106.069 56 117.589 39.76C117.509 39.84 117.549 39.84 117.709 39.76C117.949 39.6 118.149 39.52 118.309 39.52C118.709 39.52 119.549 39.92 120.829 40.72C122.109 41.44 122.749 42.08 122.749 42.64C122.749 42.64 122.589 42.92 122.269 43.48C121.949 43.96 121.549 44.72 121.069 45.76C119.789 48.48 118.789 51.16 118.069 53.8C117.429 56.36 117.109 58.6 117.109 60.52C117.109 64.76 118.149 66.88 120.229 66.88L121.429 66.64L121.669 66.76C121.669 67.48 120.669 67.84 118.669 67.84C116.749 67.84 115.149 66.96 113.869 65.2C112.669 63.36 112.069 60.92 112.069 57.88C112.069 54.92 112.589 51.64 113.629 48.04C113.549 48.28 113.269 48.72 112.789 49.36C112.309 50 111.549 51.12 110.509 52.72C103.949 62.88 98.7892 67.96 95.0292 67.96Z" fill="white"/>
<path d="M137.144 68.4399C134.744 68.4399 133.544 67.8799 133.544 66.7599C134.744 53.8799 135.344 46.2799 135.344 43.9599C135.344 37.3199 134.344 33.9599 132.344 33.8799C132.184 33.9599 131.904 34.3199 131.504 34.9599C131.184 35.5999 130.904 35.9199 130.664 35.9199C129.944 35.9199 129.584 35.3599 129.584 34.2399C129.584 32.6399 130.904 31.8399 133.544 31.8399C138.584 31.8399 141.104 36.2799 141.104 45.1599C141.104 45.5599 141.024 46.3999 140.864 47.6799C140.784 48.9599 140.584 50.7199 140.264 52.9599C140.264 53.2799 140.424 53.4399 140.744 53.4399C140.904 53.4399 141.064 53.3199 141.224 53.0799C141.384 52.7599 141.504 52.5599 141.584 52.4799C147.184 44.5599 152.304 38.2399 156.944 33.5199C161.664 28.7199 165.104 26.3199 167.264 26.3199C168.224 26.3199 168.704 26.7599 168.704 27.6399C168.704 28.0399 168.584 28.3599 168.344 28.5999C163.704 31.3199 158.544 35.7599 152.864 41.9199C147.344 47.8399 143.104 54.7599 140.144 62.6799C139.184 66.5199 138.184 68.4399 137.144 68.4399Z" fill="white"/>
<path d="M164.463 68.32C157.663 68.32 154.263 65.16 154.263 58.84C154.263 53.96 156.663 48.04 161.463 41.08C166.423 34.12 171.143 30.64 175.623 30.64C177.543 30.64 179.223 31.28 180.663 32.56C182.183 33.76 182.943 35.24 182.943 37C182.943 39.96 181.063 42.96 177.303 46C173.623 48.96 169.983 50.44 166.383 50.44C165.663 50.44 165.303 50.28 165.303 49.96L165.663 49.36C174.863 46.48 179.463 41.76 179.463 35.2C179.463 34.24 179.143 33.76 178.503 33.76C177.623 33.76 176.023 34.68 173.703 36.52C171.703 38.12 169.823 39.96 168.063 42.04C166.383 44.12 164.863 46.28 163.503 48.52C160.623 53.4 159.183 57.48 159.183 60.76C159.183 63.96 160.423 65.56 162.903 65.56C165.783 65.56 168.943 64.08 172.383 61.12C173.503 60.08 174.703 58.92 175.983 57.64C177.263 56.28 178.663 54.8 180.183 53.2C183.143 50 184.703 48.4 184.863 48.4C185.343 48.4 185.583 48.6 185.583 49C185.583 49.32 185.503 49.64 185.343 49.96C176.943 62.2 169.983 68.32 164.463 68.32Z" fill="white"/>
<path d="M191.031 68.08C187.191 68.08 185.271 64.88 185.271 58.48C185.271 54.4 186.551 47.68 189.111 38.32C191.671 28.88 194.911 20.2 198.831 12.28C202.831 4.20003 206.351 0.160034 209.391 0.160034C211.151 0.160034 212.911 0.760034 214.671 1.96003C216.431 3.08004 217.311 4.32004 217.311 5.68003C217.311 11.44 208.831 24.24 191.871 44.08C191.231 47.04 190.711 49.8 190.311 52.36C189.991 54.92 189.831 57.32 189.831 59.56C189.831 63.96 190.791 66.16 192.711 66.16L194.631 65.56C195.031 65.56 195.231 65.76 195.231 66.16C195.231 67.44 193.831 68.08 191.031 68.08ZM192.711 40.96C207.191 22.08 214.431 10.2 214.431 5.32004C214.431 4.36004 214.151 3.88004 213.591 3.88004C211.191 3.88004 207.711 8.16004 203.151 16.72C198.591 25.28 195.111 33.36 192.711 40.96Z" fill="white"/>
<path d="M209.58 68.32C202.78 68.32 199.38 65.16 199.38 58.84C199.38 53.96 201.78 48.04 206.58 41.08C211.54 34.12 216.26 30.64 220.74 30.64C222.66 30.64 224.34 31.28 225.78 32.56C227.3 33.76 228.06 35.24 228.06 37C228.06 39.96 226.18 42.96 222.42 46C218.74 48.96 215.1 50.44 211.5 50.44C210.78 50.44 210.42 50.28 210.42 49.96L210.78 49.36C219.98 46.48 224.58 41.76 224.58 35.2C224.58 34.24 224.26 33.76 223.62 33.76C222.74 33.76 221.14 34.68 218.82 36.52C216.82 38.12 214.94 39.96 213.18 42.04C211.5 44.12 209.98 46.28 208.62 48.52C205.74 53.4 204.3 57.48 204.3 60.76C204.3 63.96 205.54 65.56 208.02 65.56C210.9 65.56 214.06 64.08 217.5 61.12C218.62 60.08 219.82 58.92 221.1 57.64C222.38 56.28 223.78 54.8 225.3 53.2C228.26 50 229.82 48.4 229.98 48.4C230.46 48.4 230.7 48.6 230.7 49C230.7 49.32 230.62 49.64 230.46 49.96C222.06 62.2 215.1 68.32 209.58 68.32Z" fill="white"/>
<path d="M237.588 68.32C230.788 68.32 227.388 65.16 227.388 58.84C227.388 53.96 229.788 48.04 234.588 41.08C239.548 34.12 244.268 30.64 248.748 30.64C250.668 30.64 252.348 31.28 253.788 32.56C255.308 33.76 256.068 35.24 256.068 37C256.068 39.96 254.188 42.96 250.428 46C246.748 48.96 243.108 50.44 239.508 50.44C238.788 50.44 238.428 50.28 238.428 49.96L238.788 49.36C247.988 46.48 252.588 41.76 252.588 35.2C252.588 34.24 252.268 33.76 251.628 33.76C250.748 33.76 249.148 34.68 246.828 36.52C244.828 38.12 242.948 39.96 241.188 42.04C239.508 44.12 237.988 46.28 236.628 48.52C233.748 53.4 232.308 57.48 232.308 60.76C232.308 63.96 233.548 65.56 236.028 65.56C238.908 65.56 242.068 64.08 245.508 61.12C246.628 60.08 247.828 58.92 249.108 57.64C250.388 56.28 251.788 54.8 253.308 53.2C256.268 50 257.828 48.4 257.988 48.4C258.468 48.4 258.708 48.6 258.708 49C258.708 49.32 258.628 49.64 258.468 49.96C250.068 62.2 243.108 68.32 237.588 68.32Z" fill="white"/>
<path d="M260.392 42.1114L265.221 45.7974C265.4 45.9334 265.614 46.0024 265.828 46.0024C266.005 46.0024 266.183 45.9554 266.342 45.8594C266.514 45.7554 270.61 43.2944 274.383 40.3384C276.779 38.4624 279.336 36.2104 279.93 35.6094C281.115 34.4104 281.34 32.6374 280.476 31.2994C280.061 30.6554 279.428 30.2174 278.694 30.0624C277.907 29.8964 277.083 30.0644 276.368 30.5334C275.643 31.0104 274.945 31.4854 274.27 31.9624C271.819 31.3194 267.653 30.7584 264.729 33.1794C264.34 33.5004 264.157 33.9604 264.229 34.4394C264.321 35.0634 264.7 35.8404 267.749 37.2554C267.057 37.8934 266.474 38.4544 266.051 38.8684L265.902 38.8174C264.736 38.4234 263.433 38.5954 262.327 39.2954L260.466 40.4694C260.189 40.6444 260.015 40.9434 260.001 41.2704C259.987 41.5974 260.133 41.9124 260.393 42.1104L260.392 42.1114ZM266.553 34.3284C268.229 33.2954 270.409 33.3114 272.106 33.5614C271.566 33.9784 271.039 34.3984 270.524 34.8244C270.13 35.1504 269.747 35.4764 269.378 35.7964C267.783 35.1024 266.965 34.6204 266.553 34.3284ZM263.394 40.9884C263.987 40.6124 264.668 40.5134 265.258 40.7134L265.992 40.9634C266.351 41.0864 266.752 40.9924 267.021 40.7244C267.726 40.0194 269.603 38.1834 271.8 36.3664C273.523 34.9404 275.376 33.5804 277.466 32.2074C277.731 32.0324 278.021 31.9674 278.28 32.0214C278.494 32.0664 278.667 32.1894 278.794 32.3854C279.206 33.0244 278.946 33.7594 278.506 34.2044C277.959 34.7584 275.446 36.9654 273.149 38.7654C270.288 41.0054 267.153 43.0054 265.889 43.7914L262.749 41.3954L263.394 40.9884Z" fill="white"/>
</g>
<defs>
<clipPath id="clip0_7_79">
<rect width="281" height="73" fill="white"/>
</clipPath>
</defs>
</svg>
