<svg width="274" height="69" viewBox="0 0 274 69" fill="none" xmlns="http://www.w3.org/2000/svg">
<path d="M262.016 68.2667V0H273.305V68.2667H262.016ZM225.483 38.3111V54.2222H241.127C244.15 54.2222 247.172 53.9259 250.194 53.3333C253.276 52.6815 255.853 51.8815 257.927 50.9333V61.5111C255.972 62.5185 253.424 63.3185 250.283 63.9111C247.142 64.5037 243.942 64.8 240.683 64.8H214.283V27.8222H240.505V12.5333H214.194V1.86666H251.616V38.3111H225.483Z" fill="white"/>
<path d="M144.959 24.8V0.0888672H155.981V4.6222H191.003V0.0888672H202.026V24.8H144.959ZM191.003 12.3555H155.981V16.7111H191.003V12.3555ZM206.203 36.9778H140.781V28.3555H206.203V36.9778ZM203.003 60.6222V68H144.87V51.0222H191.181V47.9111H144.692V40.5333H202.203V57.4222H155.892V60.6222H203.003Z" fill="white"/>
<path d="M134.302 68.2667H123.813V36.9778H116.791V67.1111H106.391V0.266666H116.791V25.7778H123.813V0H134.302V68.2667ZM86.6573 54.7556C89.6795 54.7556 92.6129 54.5481 95.4573 54.1333C98.361 53.6593 100.82 52.9778 102.835 52.0889V62.2222C100.939 63.0518 98.5092 63.7037 95.5462 64.1778C92.5832 64.5926 89.4721 64.8 86.2129 64.8H71.8129V28.0889H88.9684V11.9111H71.8129V1.86666H99.4573V38.0444H82.3018V54.7556H86.6573Z" fill="white"/>
<path d="M3.82222 46.8445V1.8667H61.6V12.2667H15.0222V19.3778H60.6222V29.2445H15.0222V36.5334H62.4V46.8445H3.82222ZM65.4222 65.6H0V54.7556H65.4222V65.6Z" fill="white"/>
</svg>
