<svg width="428" height="63" viewBox="0 0 428 63" fill="none" xmlns="http://www.w3.org/2000/svg">
<path d="M0.0222222 11V0.777777H50.6V11H31.3111V63H19.4V11H0.0222222ZM81.8604 44.9556C81.5049 45.0148 80.9715 45.0444 80.2604 45.0444H67.3715V63H55.5493V0.777777H80.2604C85.416 0.777777 89.89 1.66666 93.6826 3.44444C97.5345 5.22222 100.468 7.8 102.483 11.1778C104.557 14.4963 105.594 18.437 105.594 23C105.594 27.6815 104.497 31.7111 102.305 35.0889C100.112 38.4667 97.0308 40.9852 93.0604 42.6444L106.66 63H93.8604L81.8604 44.9556ZM79.6382 35.0889C84.1419 35.0889 87.5789 34.0519 89.9493 31.9778C92.3789 29.8444 93.5938 26.8519 93.5938 23C93.5938 19.2074 92.3789 16.2741 89.9493 14.2C87.5789 12.0667 84.1419 11 79.6382 11H67.3715V35.0889H79.6382ZM124.344 48.8667L118.655 63H106.477L132.966 0.777777H144.699L171.277 63H158.833L153.144 48.8667H124.344ZM138.833 13.1333L128.166 39.2667H149.322L138.833 13.1333ZM198.118 63H186.385L160.696 0.777777H173.585L192.696 47.5333L211.985 0.777777H223.807L198.118 63ZM272.693 63H227.893V0.777777H271.538V10.8222H239.715V26.5556H267.893V36.3333H239.715V52.8667H272.693V63ZM293.675 0.777777V52.7778H324.075V63H281.764V0.777777H293.675ZM374.334 63H329.534V0.777777H373.178V10.8222H341.356V26.5556H369.534V36.3333H341.356V52.8667H374.334V63ZM427.849 63H383.049V0.777777H426.694V10.8222H394.872V26.5556H423.049V36.3333H394.872V52.8667H427.849V63Z" fill="white"/>
</svg>
