<svg width="24" height="24" viewBox="0 0 24 24" fill="none" xmlns="http://www.w3.org/2000/svg">
<path d="M6.42188 4.65039H17.4219C18.1675 4.65039 18.7715 5.25442 18.7715 6V14.9473C18.7715 15.3911 18.5543 15.8024 18.1973 16.0527L18.0352 16.1494L12.5352 18.957C12.198 19.129 11.8068 19.1505 11.4561 19.0215L11.3086 18.957L5.80859 16.1494C5.35675 15.9188 5.07227 15.4546 5.07227 14.9473V6C5.07227 5.25442 5.67629 4.65039 6.42188 4.65039Z" stroke="#2E3137" stroke-width="1.3"/>
<path fill-rule="evenodd" clip-rule="evenodd" d="M15.9403 9.60755C16.1569 9.89387 16.1003 10.3015 15.814 10.5181L11.8474 13.5181C11.637 13.6772 11.3512 13.6934 11.1242 13.559L8.59073 12.059C8.28183 11.8761 8.17968 11.4774 8.36258 11.1685C8.54547 10.8596 8.94415 10.7574 9.25305 10.9403L11.4111 12.2181L15.0298 9.48122C15.3161 9.26468 15.7238 9.32123 15.9403 9.60755Z" fill="#2E3137"/>
</svg>
