<svg width="26" height="26" viewBox="0 0 26 26" fill="none" xmlns="http://www.w3.org/2000/svg">
<g clip-path="url(#clip0_112_4936)">
<path d="M13 24.3954C6.71447 24.3954 1.60547 19.2864 1.60547 13.0009C1.60547 6.71545 6.71447 1.60645 13 1.60645C11.3555 1.60645 9.87347 2.58795 8.72297 4.23245C7.95597 5.33095 7.33847 6.73494 6.93547 8.34045H2.63247C2.39847 8.86045 2.20347 9.40645 2.04747 9.96544H6.60397C6.45447 10.9274 6.36997 11.9414 6.36997 13.0009C6.36997 14.0604 6.45447 15.0744 6.60397 16.0364H2.04747C2.20347 16.5954 2.39847 17.1414 2.63247 17.6614H6.93547C7.33847 19.2669 7.95597 20.6709 8.72297 21.7694C9.87347 23.4139 11.3555 24.3954 13 24.3954Z" fill="#C4EAEF"/>
<path d="M13 24.3954C19.2854 24.3954 24.3944 19.2864 24.3944 13.0009C24.3944 6.71545 19.2854 1.60645 13 1.60645C14.6444 1.60645 16.1264 2.58795 17.2769 4.23245C18.0439 5.33095 18.6614 6.73494 19.0644 8.34045H23.3674C23.6014 8.86045 23.7964 9.40645 23.9524 9.96544H19.3959C19.5454 10.9274 19.6299 11.9414 19.6299 13.0009C19.6299 14.0604 19.5454 15.0744 19.3959 16.0364H23.9524C23.7964 16.5954 23.6014 17.1414 23.3674 17.6614H19.0644C18.6614 19.2669 18.0439 20.6709 17.2769 21.7694C16.1264 23.4139 14.6444 24.3954 13 24.3954Z" fill="#C4EAEF"/>
<path d="M17.377 8.34003C16.6419 5.77383 15.3308 3.88623 13.8124 3.37793V8.34003H17.377Z" fill="#C4EAEF"/>
<path d="M12.1875 16.0368H8.25434C8.08729 15.0761 7.99304 14.0563 7.99304 13.0013C7.99304 11.9464 8.08729 10.9265 8.25434 9.96582H12.1875V16.0368Z" fill="#C4EAEF"/>
<path d="M12.1875 22.6232C10.6691 22.1149 9.35801 20.2273 8.62286 17.6611H12.1875V22.6232Z" fill="#C4EAEF"/>
<path d="M17.377 17.6611C16.6419 20.228 15.3308 22.1149 13.8124 22.6232V17.6611H17.377Z" fill="#C4EAEF"/>
<path d="M17.7456 16.0368C17.9126 15.0761 18.0069 14.0563 18.0069 13.0013C18.0069 11.9464 17.9126 10.9265 17.7456 9.96582H13.8124V16.0368H17.7456Z" fill="#C4EAEF"/>
<path d="M8.62286 8.34003C9.35801 5.77318 10.6691 3.88623 12.1875 3.37793V8.34003H8.62286Z" fill="#C4EAEF"/>
<path fill-rule="evenodd" clip-rule="evenodd" d="M6.93225 8.3398C7.3411 6.7343 7.9547 5.33225 8.72365 4.23049C9.8709 2.5873 11.3555 1.60645 13 1.60645C14.6445 1.60645 16.1291 2.5873 17.2764 4.23049C18.0453 5.33225 18.6589 6.7343 19.0678 8.3398L23.3694 8.33984C23.6041 8.86179 23.7984 9.40454 23.9531 9.96484H19.396C19.5462 10.9294 19.6326 11.9434 19.6326 13.0003C19.6326 14.057 19.5462 15.0708 19.3961 16.0352H23.9519C23.7972 16.5955 23.6035 17.1382 23.3682 17.6602H19.0678C18.6589 19.2657 18.0453 20.6677 17.2764 21.7695C16.1291 23.4127 14.6445 24.3935 13 24.3935C11.3555 24.3935 9.8709 23.4127 8.72365 21.7695C7.9547 20.6677 7.3411 19.2657 6.93225 17.6602H2.63058C2.39592 17.1382 2.20157 16.5955 2.04688 16.0352H6.60466C6.45457 15.0708 6.36816 14.057 6.36816 13.0003C6.36816 11.9434 6.45461 10.9294 6.60476 9.96484H2.04749C2.20219 9.40454 2.39589 8.86179 2.63119 8.33984L12.1876 8.3398L12.1875 3.3777C10.6691 3.886 9.35805 5.7736 8.6229 8.3398H6.93225ZM8.25511 9.96484C8.08806 10.9255 7.99381 11.9454 7.99381 13.0003C7.99381 14.055 8.08802 15.0747 8.25499 16.0352H12.1876V9.96484H8.25511ZM13.8126 8.3398H17.3771C16.642 5.77298 15.3309 3.88605 13.8126 3.37772V8.3398ZM13.8126 17.6602H17.3771C16.642 20.2263 15.3309 22.1139 13.8126 22.6222V17.6602ZM8.6229 17.6602H12.1876L12.1875 22.6223C10.6691 22.114 9.35805 20.227 8.6229 17.6602ZM17.7457 16.0352H13.8126V9.96484H17.7457C17.9127 10.9255 18.007 11.9454 18.007 13.0003C18.007 14.055 17.9127 15.0747 17.7457 16.0352Z" fill="#6DBCCA"/>
</g>
<defs>
<clipPath id="clip0_112_4936">
<rect width="26" height="26" fill="white"/>
</clipPath>
</defs>
</svg>
