<svg width="20" height="20" viewBox="0 0 20 20" fill="none" xmlns="http://www.w3.org/2000/svg">
<path fill-rule="evenodd" clip-rule="evenodd" d="M10.001 1.1377C11.9348 1.13778 13.7962 1.86286 15.1738 3.16406C16.5528 4.46655 17.335 6.24133 17.335 8.09961C17.3349 11.1889 15.5271 13.8722 13.8154 15.7314C12.9505 16.6709 12.0869 17.4243 11.4404 17.9434C11.1167 18.2033 10.8454 18.406 10.6543 18.5439C10.559 18.6128 10.4832 18.6659 10.4307 18.7021C10.4044 18.7202 10.3835 18.7345 10.3691 18.7441L10.3525 18.7549L10.3477 18.7578L10.3467 18.7588C10.1377 18.897 9.8643 18.898 9.65527 18.7598L9.65332 18.7578L9.64844 18.7549L9.63184 18.7441C9.61746 18.7344 9.59664 18.7203 9.57031 18.7021C9.51772 18.6659 9.44211 18.6128 9.34668 18.5439C9.15563 18.406 8.88521 18.2032 8.56152 17.9434C7.91508 17.4244 7.05149 16.6709 6.18652 15.7314C4.47486 13.8722 2.66701 11.1889 2.66699 8.09961C2.66699 6.24135 3.4482 4.46655 4.82715 3.16406C6.20492 1.86272 8.06703 1.1377 10.001 1.1377ZM10 6C8.87172 6 8 6.91866 8 8C8 9.08134 8.87172 10 10 10C11.1283 10 12 9.08134 12 8C12 6.91866 11.1283 6 10 6Z" fill="#969FAC"/>
</svg>
