<svg width="32" height="32" viewBox="0 0 32 32" fill="none" xmlns="http://www.w3.org/2000/svg">
<path d="M30 16C30 23.732 23.732 30 16 30C8.26801 30 2 23.732 2 16C2 8.26801 8.26801 2 16 2C23.732 2 30 8.26801 30 16Z" fill="#ECF2FA"/>
<path d="M11.4698 11.4697C11.1769 11.7626 11.1769 12.2374 11.4698 12.5303L14.9394 15.9999L11.4697 19.4696C11.1768 19.7624 11.1768 20.2373 11.4697 20.5302C11.7626 20.8231 12.2374 20.8231 12.5303 20.5302L16 17.0605L19.4697 20.5302C19.7626 20.8231 20.2375 20.8231 20.5304 20.5302C20.8233 20.2373 20.8233 19.7624 20.5304 19.4696L17.0607 15.9999L20.5302 12.5303C20.8231 12.2374 20.8231 11.7626 20.5302 11.4697C20.2373 11.1768 19.7624 11.1768 19.4696 11.4697L16 14.9392L12.5305 11.4697C12.2376 11.1768 11.7627 11.1768 11.4698 11.4697Z" fill="#454A52"/>
</svg>
