<svg width="24" height="20" viewBox="0 0 24 20" fill="none" xmlns="http://www.w3.org/2000/svg">
<path fill-rule="evenodd" clip-rule="evenodd" d="M10.3331 1.75C6.69726 1.75 3.74982 4.69746 3.74982 8.33333C3.74982 11.9692 6.69726 14.9167 10.3331 14.9167C11.8809 14.9167 13.3039 14.3826 14.4279 13.4886L18.5529 17.6136C18.8458 17.9065 19.3206 17.9065 19.6135 17.6136C19.9064 17.3207 19.9064 16.8459 19.6135 16.553L15.4885 12.4279C16.3824 11.3039 16.9164 9.88101 16.9164 8.33333C16.9164 4.69746 13.969 1.75 10.3331 1.75ZM5.24981 8.33333C5.24981 5.52589 7.52569 3.25 10.3331 3.25C13.1406 3.25 15.4164 5.52589 15.4164 8.33333C15.4164 11.1408 13.1406 13.4167 10.3331 13.4167C7.52569 13.4167 5.24981 11.1408 5.24981 8.33333Z" fill="#B7BEC8"/>
</svg>
