<svg width="18" height="18" viewBox="0 0 18 18" fill="none" xmlns="http://www.w3.org/2000/svg">
<path fill-rule="evenodd" clip-rule="evenodd" d="M12.2117 9C12.2117 10.7752 10.7727 12.2143 8.99745 12.2143C7.22225 12.2143 5.78317 10.7752 5.78317 9C5.78317 7.2248 7.22225 5.78571 8.99745 5.78571C10.7727 5.78571 12.2117 7.2248 12.2117 9ZM10.926 9C10.926 10.0651 10.0626 10.9286 8.99745 10.9286C7.93233 10.9286 7.06888 10.0651 7.06888 9C7.06888 7.93488 7.93233 7.07143 8.99745 7.07143C10.0626 7.07143 10.926 7.93488 10.926 9Z" fill="#525965"/>
<path fill-rule="evenodd" clip-rule="evenodd" d="M6.10723 17.5258C6.21772 16.6461 5.94148 15.8821 5.25271 15.4845C4.56774 15.089 3.72485 15.196 2.99787 15.7084C1.5849 14.4437 0.573848 12.7393 0.179932 10.8102C0.988974 10.4548 1.50987 9.76446 1.50987 8.99862C1.50987 8.24599 0.942907 7.52524 0.184915 7.16558C0.584138 5.23771 1.60003 3.53551 3.01714 2.27444C3.71596 2.76631 4.59032 2.89876 5.25462 2.51523C5.92041 2.13083 6.23891 1.30503 6.13476 0.464967C7.03414 0.163396 7.9969 0 8.99783 0C10.0002 0 10.9643 0.163872 11.8648 0.466285C11.789 1.30316 12.0796 2.13287 12.7416 2.5151C13.422 2.90789 14.2247 2.77104 14.9318 2.23314C16.3464 3.47467 17.3685 5.15276 17.7875 7.05699C16.9525 7.3962 16.485 8.17274 16.485 8.99984C16.485 9.82286 16.9734 10.5069 17.8111 10.8328C17.4174 12.7356 16.423 14.4187 15.035 15.6749C14.3204 15.1958 13.4259 15.0873 12.7398 15.4834C12.0425 15.886 11.7465 16.64 11.8394 17.5422C10.9462 17.8392 9.99079 18 8.99783 18C7.98668 18 7.01448 17.8333 6.10723 17.5258ZM5.89556 14.371C5.03543 13.8744 4.09336 13.8592 3.25165 14.1471C2.54157 13.3551 1.99359 12.4164 1.65834 11.3831C2.33455 10.8004 2.79558 9.97385 2.79558 8.99862C2.79558 8.02965 2.31161 7.20156 1.65802 6.61784C1.99622 5.57502 2.55109 4.6285 3.27061 3.83178C4.09804 4.11361 5.04633 4.1201 5.89748 3.62869C6.74524 3.13923 7.21566 2.31679 7.37581 1.45626C7.89798 1.34462 8.44048 1.28571 8.99783 1.28571C9.56137 1.28571 10.1097 1.34593 10.6372 1.46C10.7954 2.30015 11.2381 3.13166 12.0988 3.62856C12.97 4.13155 13.8944 4.11953 14.709 3.81405C15.408 4.58335 15.9531 5.49349 16.2969 6.49584C15.5848 7.14213 15.1993 8.05825 15.1993 8.99984C15.1993 9.98568 15.6248 10.8358 16.3228 11.4275C15.9889 12.4354 15.4524 13.352 14.7603 14.1289C13.9116 13.8584 12.9505 13.8771 12.0969 14.37C11.2177 14.8776 10.7523 15.6807 10.5974 16.5485C10.0822 16.6571 9.54721 16.7143 8.99783 16.7143C8.43651 16.7143 7.89026 16.6545 7.36465 16.5413C7.22267 15.6857 6.77352 14.8779 5.89556 14.371Z" fill="#525965"/>
</svg>
