<svg width="24" height="24" viewBox="0 0 24 24" fill="none" xmlns="http://www.w3.org/2000/svg">
<path d="M6.92188 5.95508H17.9219C18.6675 5.95508 19.2715 6.5591 19.2715 7.30469V8.6543H5.57227V7.30469C5.57227 6.5591 6.17629 5.95508 6.92188 5.95508Z" stroke="#2E3137" stroke-width="1.3"/>
<path d="M10.9219 3.67773H13.9219C14.6675 3.67773 15.2715 4.28176 15.2715 5.02734V5.92188H9.57227V5.02734C9.57227 4.28176 10.1763 3.67773 10.9219 3.67773Z" stroke="#2E3137" stroke-width="1.3"/>
<path d="M18.2715 8.65039V19C18.2715 19.7456 17.6675 20.3496 16.9219 20.3496H7.92188C7.17629 20.3496 6.57227 19.7456 6.57227 19V8.65039H18.2715Z" stroke="#2E3137" stroke-width="1.3"/>
<rect x="8.77197" y="11.5918" width="1.3" height="5.29492" rx="0.65" fill="#2E3137"/>
<rect x="11.772" y="11.5918" width="1.3" height="5.29492" rx="0.65" fill="#2E3137"/>
<rect x="14.772" y="11.5918" width="1.3" height="5.29492" rx="0.65" fill="#2E3137"/>
</svg>
